<svg width="32" height="32" viewBox="0 0 32 32" fill="none" xmlns="http://www.w3.org/2000/svg">
<path d="M12.1151 2.40641C13.2607 1.69601 14.6175 1.49121 15.9551 1.49121C22.8671 1.49121 28.4671 10.2464 28.4671 18.2592C28.4671 26.272 22.8671 30.5088 15.9551 30.5088C9.04315 30.5088 3.44315 26.272 3.44315 18.2592C3.44315 15.3792 4.16635 12.4032 5.41435 9.77281C5.41435 9.77281 7.73115 4.94721 11.2063 5.00481C11.2063 5.00481 10.4127 3.46241 12.1151 2.40641Z" fill="#BCE680"/>
<path d="M4.57601 12.1536C6.95681 12.192 9.00481 12.9856 10.6496 14.5152C11.8848 15.6608 12.4224 16.8128 12.4288 16.8256L12.8896 16.6144C12.864 16.5632 12.3136 15.3728 11.0144 14.1632C9.81762 13.0432 7.72481 11.6992 4.58881 11.648L4.57601 12.1536ZM3.88481 20.5888C5.34401 20.0896 6.79041 20.1344 8.17281 20.7168C9.20961 21.152 9.82402 21.7472 9.83042 21.76L10.1888 21.4016C10.1632 21.376 9.51042 20.736 8.39042 20.256C7.35361 19.8144 5.70241 19.4304 3.71841 20.1088L3.88481 20.5888ZM23.2256 5.26721C23.2128 5.27361 21.9136 5.76641 20.4864 6.85441C19.1808 7.84641 17.4912 9.56161 16.864 12.0704L16.3712 11.9488C17.0304 9.29281 18.8096 7.48801 20.192 6.43841C21.6768 5.31201 22.9952 4.81281 23.0464 4.79361L23.2256 5.26721ZM27.584 12.288C25.088 12.032 22.8928 12.9536 21.4912 13.7728C19.9616 14.6688 19.0144 15.6352 19.0016 15.648L18.6368 15.296C18.6752 15.2576 19.6352 14.272 21.2224 13.344C22.6944 12.4864 24.9984 11.5136 27.6352 11.7824L27.584 12.288ZM20.928 19.4048C21.0944 19.328 24.9728 17.504 28.7424 18.8992L28.5632 19.3792C24.992 18.0544 21.184 19.8464 21.1456 19.8656L20.928 19.4048ZM26.7456 25.76C24.7168 24.0384 22.0416 24.288 22.016 24.2944L21.9648 23.7888C22.08 23.776 24.8832 23.5136 27.072 25.376L26.7456 25.76ZM20.5952 17.952C15.072 17.1008 11.5328 19.6096 11.4944 19.6352L11.1936 19.2256C11.232 19.2 12.1408 18.5472 13.7728 17.9968C15.2704 17.4912 17.6768 16.992 20.672 17.4528L20.5952 17.952ZM10.2336 27.2576C12.5824 24.2304 15.7376 23.0464 17.9712 22.5792C20.4096 22.0736 22.3104 22.2912 22.3296 22.2912C22.4704 22.3104 22.528 21.8048 22.3872 21.7856C22.304 21.7728 20.3968 21.5552 17.8816 22.0736C15.5584 22.5536 12.2688 23.7888 9.82401 26.944L10.2336 27.2576Z" fill="#F0FDC5"/>
<path d="M25.4271 6.43201C24.1983 4.69761 22.7839 3.32161 21.2351 2.34241C19.5455 1.27361 17.7663 0.729614 15.9551 0.729614C14.2207 0.729614 12.8383 1.06881 11.7183 1.76001C10.5087 2.50881 10.2079 3.52001 10.2591 4.33281C6.90554 4.99841 4.81914 9.24801 4.72314 9.45282C3.40474 12.2304 2.67514 15.3664 2.67514 18.2656C2.67514 22.272 4.03194 25.6256 6.59194 27.9552C8.94074 30.0928 12.2687 31.2704 15.9551 31.2704C19.6415 31.2704 22.9631 30.0928 25.3183 27.9552C27.8783 25.6256 29.2351 22.272 29.2351 18.2592C29.2351 14.1504 27.8463 9.83681 25.4271 6.43201ZM4.20474 18.2592C4.20474 15.5776 4.87674 12.6784 6.09914 10.0992C6.61114 9.03042 8.25594 6.47681 10.2975 5.88801C10.5343 5.81761 10.7903 5.92641 10.9119 6.14401C11.9295 7.98721 13.7727 10.2336 14.9311 11.5776C14.0479 12.16 13.4271 13.088 13.2287 14.1376C13.1391 14.6112 12.8959 14.9952 12.5311 15.2192C11.8975 15.616 11.3919 16.1792 11.0719 16.8576C10.8479 17.3248 10.7199 17.8176 10.6943 18.3296C10.6623 18.8864 10.3487 19.3408 10.0863 19.616C9.14554 20.6272 8.78714 21.9264 9.11354 23.0976L9.17114 23.2896C9.51034 24.4928 9.62554 24.896 9.28634 25.9584C9.08794 26.5664 9.06234 27.1232 9.13914 27.616C9.16474 27.7632 8.99834 27.872 8.87034 27.7888C8.42234 27.4944 8.00634 27.1744 7.61594 26.8224C5.38234 24.7936 4.20474 21.8304 4.20474 18.2592ZM17.5039 14.6112C17.7023 15.4944 18.1567 16.2368 18.8799 16.6848C19.2575 16.9216 19.5583 17.2608 19.7503 17.6576C19.8847 17.9328 19.9551 18.2272 19.9743 18.5344C20.0191 19.328 20.3647 20.096 20.9791 20.7552C21.5359 21.3568 21.7663 22.0928 21.5871 22.7264L21.5359 22.9184C21.1775 24.1792 20.9663 24.9408 21.4399 26.4256C21.6383 27.04 21.5551 27.5456 21.2671 28.0448C20.9087 28.6656 20.3007 29.1072 19.6031 29.2864C18.4575 29.5872 17.2351 29.7408 15.9615 29.7408C14.8415 29.7408 13.7599 29.6192 12.7359 29.3888C12.0703 29.2416 11.4751 28.864 11.0847 28.3072C10.6751 27.7248 10.5343 27.1552 10.7647 26.4384C11.2511 24.9344 11.0335 24.16 10.6687 22.8736L10.6175 22.6816C10.4383 22.0352 10.6687 21.2864 11.2319 20.6784C11.8527 20.0064 12.2111 19.2256 12.2559 18.4192C12.2751 18.112 12.3519 17.8112 12.4863 17.5296C12.6847 17.12 12.9855 16.7744 13.3695 16.5376C14.0991 16.0768 14.5983 15.328 14.7647 14.4256C14.8543 13.952 15.0783 13.5296 15.3983 13.1968C15.7503 12.8384 16.3263 12.8256 16.6975 13.152C17.0047 13.4272 17.3375 13.8752 17.5039 14.6112ZM11.7823 4.12161C11.7759 3.69921 12.0319 3.35361 12.5183 3.05281C13.3887 2.51521 14.5151 2.25281 15.9551 2.25281C17.4719 2.25281 18.9759 2.71361 20.4159 3.62881C21.7791 4.49281 23.0783 5.76641 24.1791 7.31521C26.3871 10.4256 27.7055 14.5152 27.7055 18.2656C27.7055 21.8368 26.5215 24.8 24.2879 26.8288C23.9679 27.1168 23.6287 27.392 23.2703 27.6416C23.1679 27.712 23.0271 27.6288 23.0399 27.5008C23.0975 27.04 23.0655 26.528 22.8863 25.9648C22.5535 24.9216 22.6623 24.5248 22.9951 23.3408L23.0463 23.1488C23.3663 21.9968 23.0143 20.7168 22.0863 19.7248C21.8303 19.4496 21.5167 19.008 21.4847 18.4576C21.4591 17.952 21.3311 17.4656 21.1135 17.0112C20.7935 16.3456 20.3007 15.7888 19.6799 15.3984C19.3279 15.1744 19.0847 14.7968 18.9951 14.336C18.8095 13.344 18.2399 12.4608 17.4271 11.8848C17.0367 11.6096 16.6911 11.2768 16.3775 10.9184C15.1679 9.53602 12.7679 6.67521 11.9231 4.77441C11.9295 4.77441 11.7887 4.44801 11.7823 4.12161Z" fill="#839958"/>
</svg>
