<svg version="1.1" id="Layer_1" xmlns="http://www.w3.org/2000/svg" x="0" y="0" viewBox="0 0 200 200" xml:space="preserve" width="200" height="200"><style>.st20{fill:#fff}</style><g><path d="M147.9 51.4c-41.1 38.4-102.6 49.9-102.6 49.9S-7.4 110 16.9 161c10.9 20.7 36.6 26.6 61.5 19.5 75.4-27.6 99.4-82.4 101.4-113.9l-31.9-15.2z" fill="#663965"/><path d="M9.7 119.6c9.7-18.8 33.8-22.9 34.9-23.1.5-.1 57.9-11.2 97.4-46.3l9.4 4.5C109.9 93.7 49 105.5 46.2 106c-.3.1-20.5 3.6-28 18.1-4.7 9-3.7 20.7 3 34.7 9.1 17.1 31.4 24 55.7 17 57.3-21 80.6-57.1 89.4-76.8 5.3-11.8 7.9-22.8 8.6-31.7l9.5 1.4c-.8 10-3.7 21.8-9.3 34.3-9.5 21.1-34.4 59.7-95.1 81.9 0 0-8.3 3-21.5 3.2-20.3 0-37.5-9-45.9-25 .1.2-13.4-23.1-2.9-43.5z" fill="#331e31"/><path class="st20" d="M36.5 127.4c-.5 0-.9-.2-1.2-.6-.6-.7-.5-1.7.2-2.3 3.7-3.2 9.8-5.2 14.2-6 1.9-.4 19.2-3.9 41.9-13.6.8-.3 1.8 0 2.1.8.4.8 0 1.8-.8 2.1-23 9.9-40.7 13.4-42.6 13.8-3.8.7-9.5 2.6-12.7 5.3-.4.4-.8.5-1.1.5zM109.6 99.8c-.6 0-1.1-.3-1.4-.9-.4-.8-.1-1.8.7-2.2 10.1-5.3 19.7-11.2 28.6-17.6.7-.5 1.7-.4 2.2.4.5.7.4 1.7-.4 2.2-9 6.5-18.7 12.5-29 17.8-.2.2-.5.3-.7.3z"/><path d="M183.2 76s-3-8.1-11.5-14.7l-15.4 11.4.7-19c-9.9-3-18.6-1.4-18.6-1.4l22.1-12.6L180 16.6l9.5 5-9.3 27 3 27.4z" fill="#afd048"/><path d="M183.2 80.8c-2 0-3.8-1.3-4.5-3.1 0 0-2-5.2-7.2-10.2l-12.3 9.1c-1.5 1.1-3.5 1.2-5.1.4-1.6-.9-2.6-2.6-2.6-4.4l.6-15.1c-7-1.4-12.6-.4-12.7-.4-2 .4-4-.6-5.1-2.4-1-1.8-.8-4 .6-5.6 6-6.9 13.7-11.6 21.8-13.5 3.8-.9 7.2-3.2 9.5-6.7l9.9-15c1.4-2.1 4.1-2.8 6.3-1.6l9.5 5c2.2 1.2 3.2 3.8 2.2 6.1l-7 16.8c-1.6 3.8-1.7 7.9-.3 11.4 3.3 8.3 3.8 17.9 1.2 25.8-.8 2-2.6 3.4-4.8 3.4.1 0 .1 0 0 0zm-31.3-33.2c2.1.3 4.3.8 6.5 1.5 2.1.6 3.5 2.6 3.4 4.8l-.3 9 7.4-5.4c1.7-1.3 4.1-1.2 5.8.1 1.8 1.4 3.4 2.8 4.8 4.3-.4-2.2-.9-4.4-1.8-6.5-2.4-5.9-2.2-12.5.3-18.7l5.3-12.8-1.7-.9-7.5 11.4c-3.6 5.5-9.1 9.4-15.4 10.8-2.3.4-4.5 1.2-6.8 2.4z" fill="#6b9311"/><circle transform="matrix(.9996 -.02778 .02778 .9996 -2.82 2.845)" class="st20" cx="101" cy="102.9" r="1.6"/></g></svg>