<?xml version="1.0" encoding="UTF-8"?>
<svg xmlns="http://www.w3.org/2000/svg" xmlns:xlink="http://www.w3.org/1999/xlink" width="32pt" height="32pt" viewBox="0 0 32 32" version="1.1">
<g id="surface1">
<path style=" stroke:none;fill-rule:nonzero;fill:#ffffff;fill-opacity:1;" d="M 23.707031 0 C 23.707031 0 21.109375 2.519531 18.296875 3.539062 C -2.523438 11.074219 6.257812 25.75 6.542969 25.796875 C 6.542969 25.796875 7.710938 23.761719 9.289062 22.601562 C 19.296875 15.246094 21.332031 6.777344 21.332031 6.777344 C 21.332031 6.777344 19.085938 16.96875 10.179688 23.308594 C 8.214844 24.707031 6.882812 28.15625 6.320312 31.597656 C 6.320312 31.597656 7.714844 31.035156 8.3125 30.882812 C 8.542969 29.359375 9.035156 27.898438 9.859375 26.59375 C 22.308594 28.074219 26.382812 18.046875 26.917969 14.550781 C 28.171875 6.292969 23.707031 0 23.707031 0 Z M 23.707031 0 "/>
</g>
</svg>
