<svg width="32" height="32" viewBox="0 0 32 32" fill="none" xmlns="http://www.w3.org/2000/svg">
<path d="M23.7505 20.2048C26.1249 14.3552 26.0609 10.0352 24.3585 8.26241C23.9745 5.56801 22.9057 3.94241 21.3697 3.63521C20.6337 3.48801 19.9297 3.66081 19.2705 4.12801C18.3297 2.42561 17.0689 1.53601 15.6545 1.58081C14.3041 1.61921 13.2161 2.43841 12.4289 3.94241C11.8593 3.62241 11.2513 3.51361 10.6241 3.64161C8.99206 3.96161 7.87846 5.79201 7.57126 8.80641C5.94566 10.56 5.90726 14.7648 8.21766 20.4352L10.6881 26.2016L14.5025 31.2128H17.6001L21.0113 26.112L23.7505 20.2048Z" fill="#63B218"/>
<path d="M16.7936 6.43196C16.8 5.92636 16.8 5.42716 16.8064 4.92156C16.8128 4.49916 16.4736 4.15996 16.0512 4.15356H16.0448C15.6288 4.15356 15.2896 4.48636 15.2832 4.90876C15.2768 5.37596 15.2768 5.84316 15.2704 6.31036L16.7936 6.43196Z" fill="#A2D400"/>
<path d="M11.8016 8.78079C11.744 8.16639 11.6928 7.55199 11.648 6.93759C11.616 6.52159 11.2512 6.20159 10.8352 6.23359C10.4192 6.26559 10.0992 6.62399 10.1312 7.04639C10.1504 7.35999 10.176 7.67359 10.2016 7.98719L11.8016 8.78079Z" fill="#A2D400"/>
<path d="M21.8432 7.42401C21.856 7.29601 21.8625 7.16801 21.8689 7.04001C21.9009 6.62401 21.5809 6.25921 21.1649 6.22721C20.7489 6.19521 20.3841 6.51521 20.3521 6.93121C20.3265 7.29601 20.3009 7.66081 20.2689 8.02561L21.8432 7.42401Z" fill="#A2D400"/>
<path d="M16.7808 12.6592L16.8 10.6752C16.8064 10.2528 16.4672 9.91363 16.0448 9.90723H16.0384C15.6224 9.90723 15.2832 10.24 15.2768 10.6624C15.264 12.0448 15.2512 13.4144 15.2448 14.7456L15.6864 15.4752L16.7808 12.6592Z" fill="#A2D400"/>
<path d="M17.6128 29.3184H14.2656C14.5344 29.5424 14.784 29.7344 15.008 29.8816C14.88 30.3296 14.6752 30.6432 14.5024 30.8352H17.6832C17.4464 30.5024 17.1712 29.8944 17.6128 29.3184Z" fill="#A4D173"/>
<path d="M12.7104 27.7952C13.2736 28.416 13.7984 28.9216 14.2656 29.3184H17.6128C17.6576 29.2608 17.7088 29.2032 17.7664 29.1456C18.1568 28.768 18.5984 28.32 19.0656 27.7952H12.7104Z" fill="#98CA63"/>
<path d="M20.3264 26.272H11.4624C11.8848 26.8352 12.3072 27.3472 12.7104 27.7952H19.072C19.4752 27.3472 19.8976 26.8416 20.3264 26.272Z" fill="#8CC354"/>
<path d="M21.4017 24.7552H10.4128C10.7584 25.3056 11.1104 25.8112 11.4624 26.2784H20.3265C20.6849 25.8048 21.0433 25.2992 21.4017 24.7552Z" fill="#7FBD44"/>
<path d="M22.3232 23.232H9.51685C9.81125 23.7696 10.1056 24.2752 10.4128 24.7552H21.4016C21.7152 24.2752 22.0224 23.7696 22.3232 23.232Z" fill="#72B636"/>
<path d="M9.632 15.1168C9.6768 15.3024 9.5104 15.4624 9.3248 15.4176C9.0944 15.36 8.8512 15.3344 8.6016 15.3472H8.5632C8.3072 15.3664 8.0512 15.328 7.8016 15.232C7.424 15.0848 7.1168 14.8224 6.912 14.4704C6.848 14.3552 6.7072 14.304 6.5856 14.3552C6.4448 14.4192 6.3936 14.5856 6.4704 14.7136C6.7264 15.1616 7.136 15.5136 7.6224 15.7056C7.936 15.8272 8.2688 15.8784 8.6016 15.8592C8.9408 15.84 9.28 15.9104 9.5808 16.064C9.7792 16.1664 9.92 16.3456 9.9712 16.5568C10.4256 18.3744 10.9504 20.0064 11.4944 21.4656C11.5584 21.632 11.4304 21.8112 11.2512 21.8048C11.0848 21.792 10.9248 21.7984 10.7584 21.824C10.5024 21.8624 10.2464 21.8432 9.9904 21.7664C9.6 21.6512 9.2736 21.4144 9.0432 21.0816C8.9664 20.9728 8.8256 20.928 8.7104 20.992C8.576 21.0624 8.5376 21.2352 8.6208 21.3568C8.9152 21.7856 9.3504 22.0992 9.8496 22.2528C10.1696 22.3488 10.5024 22.3744 10.8352 22.3232C11.0592 22.2912 11.2768 22.2976 11.4944 22.3424C11.7376 22.3936 11.936 22.56 12.0256 22.7904C13.1264 25.4464 14.2592 27.4048 15.0976 28.672C15.0976 28.672 14.9888 27.6928 14.6752 26.7712C14.3616 25.8432 14.4192 24.384 14.4192 24.384C13.6704 22.848 12.8384 20.8768 12.1024 18.496C12.0512 18.3232 12.0576 18.1376 12.1344 17.9712C12.2816 17.6384 12.5184 17.3568 12.832 17.152C13.1136 16.9728 13.344 16.736 13.5232 16.448C13.7984 16.0128 13.9136 15.4944 13.856 14.9824C13.8432 14.848 13.728 14.7392 13.5936 14.7456C13.44 14.752 13.3312 14.88 13.3504 15.0272C13.3952 15.4304 13.3056 15.8336 13.088 16.1792C12.9472 16.4032 12.768 16.5824 12.5504 16.7232C12.3776 16.832 12.224 16.9664 12.0896 17.1072C11.9552 17.2544 11.7184 17.1904 11.6672 17.0048C11.5584 16.608 11.456 16.1984 11.3536 15.776C11.3216 15.6352 11.2704 15.424 11.2192 15.1872C10.9952 14.208 10.6304 12.576 10.208 11.3344C10.0736 10.9376 9.6448 10.72 9.2416 10.8544C8.8448 10.9888 8.6272 11.4176 8.7616 11.8208C8.7616 11.8208 9.1712 13.184 9.632 15.1168Z" fill="#A2D400"/>
<path d="M19.7504 15.6992C19.9488 15.8656 20.256 15.7568 20.3008 15.5008C20.4992 14.3168 20.7296 13.0304 21.024 12.0576C21.1455 11.6544 21.5679 11.424 21.9711 11.5456C22.3743 11.6672 22.6047 12.0896 22.4831 12.4928C22.1631 13.5552 21.9199 15.0336 21.7087 16.3392C21.5935 17.0368 21.4847 17.7024 21.3759 18.2336C21.3183 18.5216 21.2543 18.8032 21.1904 19.0784C21.1392 19.3152 21.3503 19.52 21.5871 19.456C21.8495 19.392 22.1183 19.3664 22.3935 19.3856C22.6687 19.4048 22.9439 19.3664 23.2063 19.264C23.6159 19.1104 23.9487 18.8288 24.1727 18.4512C24.2431 18.3296 24.4095 18.2912 24.5311 18.368C24.6463 18.4448 24.6719 18.6048 24.6015 18.72C24.3263 19.1872 23.8911 19.5456 23.3855 19.7376C23.0527 19.8656 22.7071 19.9168 22.3551 19.8848C22.1375 19.8656 21.9199 19.8848 21.7151 19.9424C21.2287 20.064 20.8575 20.448 20.7231 20.928C19.7568 24.4288 18.5024 27.168 17.5296 28.7168C16.7808 29.92 17.6 30.9952 17.6 30.9952L14.5152 31.0144C14.5152 31.0144 15.264 29.472 16.2432 27.9104C16.8128 27.0016 17.4848 25.6576 18.1312 23.968C18.2784 23.5904 18.2528 23.1616 18.0544 22.8032C17.9008 22.5216 17.6768 22.2848 17.4016 22.0992C17.1072 21.9072 16.864 21.6512 16.6784 21.3504C16.3904 20.8832 16.2688 20.3264 16.3392 19.7824C16.3584 19.6416 16.4928 19.5392 16.64 19.5648C16.7744 19.5904 16.8576 19.7248 16.8448 19.8592C16.7936 20.288 16.8832 20.7104 17.1136 21.0816C17.2608 21.3184 17.4528 21.5168 17.6832 21.6704C17.8944 21.8112 18.0864 21.984 18.2464 22.176C18.4064 22.3744 18.72 22.3104 18.7968 22.0736C19.2 20.8128 19.5776 19.4176 19.8912 17.9136C19.9168 17.7792 19.9488 17.6384 19.9744 17.4848C20.0384 17.1456 19.9808 16.7872 19.7888 16.4928C19.6416 16.256 19.4368 16.0576 19.2 15.8976C18.9056 15.7056 18.6624 15.4496 18.4768 15.1488C18.1888 14.6816 18.0672 14.1248 18.1376 13.5808C18.1568 13.4208 18.3168 13.3184 18.4768 13.376C18.592 13.4144 18.656 13.536 18.6432 13.6512C18.592 14.0864 18.6816 14.5088 18.912 14.88C19.0592 15.1168 19.2512 15.3152 19.4816 15.4688C19.4688 15.4816 19.5968 15.5712 19.7504 15.6992Z" fill="#A2D400"/>
<path d="M21.1071 27.776C21.2095 27.6288 21.3119 27.4944 21.4143 27.3536C22.9184 25.408 24.1727 23.1936 25.1583 20.7744C26.3487 17.8368 27.0207 15.072 27.0975 12.768C27.1615 10.9376 26.8479 9.39519 26.1951 8.23039C25.9519 7.78879 25.7535 7.32799 25.6383 6.83519C24.7999 3.30239 22.8351 2.37439 21.6703 2.13759C21.3695 2.07999 21.0623 2.05439 20.7679 2.06079C20.1599 2.07359 19.5647 1.84959 19.1167 1.43359C18.0991 0.499187 16.9023 0.019187 15.6095 0.057587C14.6879 0.083187 13.5039 0.371187 12.4159 1.40799C12.0063 1.79839 11.4751 2.04159 10.9055 2.06719C10.7135 2.07999 10.5215 2.09919 10.3295 2.13759C9.08795 2.38079 8.03835 3.17439 7.29595 4.42879C6.82875 5.21599 6.47675 6.18239 6.25915 7.31519C6.15675 7.83999 5.97115 8.35199 5.72155 8.82559C5.11995 9.96479 4.83835 11.456 4.90875 13.2032C4.99195 15.4496 5.65755 18.1376 6.81595 20.992C8.19195 24.3648 9.90715 26.7776 11.1743 28.2688C11.2831 28.3904 11.3855 28.5184 11.4815 28.6528L13.2415 30.9632C13.7023 31.5648 14.4191 31.9232 15.1743 31.9232H16.9599C17.7599 31.9232 18.5087 31.5264 18.9631 30.8736L21.1071 27.776ZM13.0047 4.07039C12.8639 3.92959 12.8447 3.71199 12.9535 3.55199C13.1007 3.32159 13.2607 3.11679 13.4271 2.93119C14.0607 2.22719 14.8095 1.86239 15.6735 1.83679H15.7567C16.6079 1.83679 17.3951 2.20159 18.0927 2.91839C18.3231 3.16159 18.5471 3.43679 18.7519 3.75039C18.8607 3.91679 18.8351 4.14719 18.6879 4.28159C18.2207 4.71679 17.7855 5.29279 17.3887 6.00319C17.2799 6.20159 17.0367 6.28479 16.8255 6.20799C16.4607 6.07359 16.0831 6.00959 15.6927 6.02239C15.4879 6.02879 15.2831 6.05439 15.0847 6.09919C14.8799 6.14399 14.6687 6.06719 14.5535 5.88799C14.0991 5.20319 13.3695 4.44159 13.0047 4.07039ZM8.90235 5.21599C9.37595 4.47359 9.97755 4.02559 10.6751 3.89119C10.8287 3.85919 10.9823 3.84639 11.1295 3.84639C11.6415 3.84639 12.1471 4.02559 12.6207 4.37119C13.0879 4.71679 13.5359 5.21599 13.9455 5.87519C14.1183 6.15039 14.0607 6.52159 13.8047 6.72639C13.6511 6.84799 13.5039 6.98879 13.3631 7.14879C13.0559 7.48799 12.7871 7.90399 12.5503 8.39039C12.4223 8.65279 12.0767 8.73599 11.8463 8.55039C11.6351 8.37759 11.4175 8.23039 11.1999 8.10879C10.3743 7.64799 9.52955 7.53919 8.69755 7.80159C8.63355 7.82079 8.56955 7.83999 8.51195 7.86559C8.24955 7.96799 7.97435 7.73119 8.03835 7.45599C8.23675 6.55999 8.52475 5.80479 8.90235 5.21599ZM13.7471 7.48159C14.2975 6.86719 14.9567 6.54719 15.6991 6.52799C16.4735 6.50879 17.1839 6.82239 17.8111 7.47519C18.0671 7.74399 18.3103 8.06399 18.5279 8.42879C18.7135 8.74239 18.6815 9.13919 18.4511 9.42079C17.5487 10.5216 16.7231 11.9872 16.0191 13.7408C15.8655 14.1248 15.3151 14.1248 15.1615 13.7344C14.5087 12.0896 13.7855 10.7456 13.0047 9.74079C12.8063 9.48479 12.7615 9.14559 12.8895 8.85119C13.1839 8.20479 13.4911 7.76959 13.7471 7.48159ZM19.6287 8.23039C19.4111 8.40959 19.0911 8.35199 18.9439 8.11519C18.7135 7.73759 18.4575 7.40479 18.1823 7.11679C18.1247 7.05919 18.0671 6.99519 18.0031 6.94399C17.7791 6.73919 17.7343 6.39999 17.8879 6.13759C18.3487 5.35039 18.8415 4.75519 19.3727 4.36479C19.9871 3.91039 20.6463 3.75039 21.3247 3.88479C22.0287 4.02559 22.6239 4.46719 23.0975 5.20959C23.3919 5.67039 23.6287 6.22719 23.8144 6.87359C23.8911 7.15519 23.6223 7.40479 23.3471 7.30879L23.2319 7.27039C22.3359 6.99519 21.4015 7.12319 20.4607 7.65439C20.1727 7.81439 19.8975 8.00639 19.6287 8.23039ZM14.8543 28.6272C14.8863 28.9536 14.4895 29.1456 14.2527 28.9152C14.2271 28.8896 14.2015 28.8704 14.1759 28.8448C12.8255 27.5968 10.2847 24.8256 8.45435 20.3328C7.50715 18.016 6.93115 15.8848 6.73275 14.0032C6.55355 12.2816 6.71355 10.8352 7.19995 9.81759C7.57755 9.01759 8.13435 8.50559 8.85115 8.28159C9.09435 8.20479 9.34395 8.16639 9.59355 8.16639C10.0479 8.16639 10.5023 8.29439 10.9567 8.55039C11.8527 9.04959 13.3759 10.432 14.8095 14.2272C15.1423 15.104 15.1935 16.064 14.9439 16.9664C14.8863 17.184 14.8287 17.4016 14.7711 17.6256C13.7407 21.7152 13.7023 24.608 14.6303 27.5968C14.7583 27.9744 14.8223 28.32 14.8543 28.6272ZM15.1231 27.4432C14.2271 24.5504 14.2655 21.7408 15.2703 17.7472C15.8975 15.2448 16.7231 13.1136 17.7087 11.4048C18.6239 9.83039 19.6543 8.69119 20.6975 8.10239C21.5167 7.64159 22.3103 7.52639 23.0719 7.75679C23.8143 7.98719 24.3839 8.51199 24.7743 9.33119C25.2736 10.3744 25.4399 11.8592 25.2607 13.6192C25.0623 15.5456 24.4735 17.728 23.5135 20.1024C21.8047 24.32 19.3471 27.2128 17.5935 28.896C17.2863 29.1904 17.1263 29.5296 17.1263 29.9072C17.1263 30.0608 17.1519 30.2016 17.1903 30.336C17.2607 30.56 17.0943 30.7904 16.8575 30.7904H15.5135C15.2063 30.7904 15.0079 30.4768 15.1295 30.1952C15.7055 28.9152 15.1231 27.4432 15.1231 27.4432Z" fill="#477B21"/>
<path d="M19.9488 14.8032H19.9104C19.7888 14.784 19.7056 14.6688 19.7248 14.5472C19.8656 13.7024 20.0192 12.9472 20.128 12.4608C20.1536 12.3392 20.2752 12.2624 20.3968 12.288C20.5184 12.3136 20.5952 12.4352 20.5696 12.5568C20.4608 13.0368 20.3072 13.7792 20.1728 14.6176C20.1536 14.7264 20.0576 14.8032 19.9488 14.8032Z" fill="white"/>
<path d="M19.2192 18.528C19.2 18.528 19.1872 18.528 19.168 18.5216C19.0464 18.496 18.9696 18.3744 19.0016 18.2528C19.072 17.9584 19.1296 17.6768 19.1744 17.4848C19.2 17.3632 19.3216 17.2864 19.4432 17.312C19.5648 17.3376 19.6416 17.4592 19.616 17.5808C19.5776 17.7664 19.5136 18.0544 19.4432 18.3488C19.4112 18.4576 19.3216 18.528 19.2192 18.528Z" fill="white"/>
<path d="M18.912 19.5456C19.0357 19.5456 19.136 19.4453 19.136 19.3216C19.136 19.1979 19.0357 19.0976 18.912 19.0976C18.7883 19.0976 18.688 19.1979 18.688 19.3216C18.688 19.4453 18.7883 19.5456 18.912 19.5456Z" fill="white"/>
<path d="M7.65442 10.8416C7.77813 10.8416 7.87842 10.7413 7.87842 10.6176C7.87842 10.4939 7.77813 10.3936 7.65442 10.3936C7.53071 10.3936 7.43042 10.4939 7.43042 10.6176C7.43042 10.7413 7.53071 10.8416 7.65442 10.8416Z" fill="white"/>
<path d="M13.6704 9.33762C13.6512 9.33762 13.632 9.33762 13.6192 9.33122C13.4976 9.29922 13.4272 9.18402 13.4528 9.06242C13.4592 9.02402 13.6832 8.13442 14.4576 7.55842C14.5536 7.48162 14.6944 7.50722 14.7712 7.60322C14.848 7.69922 14.8224 7.84002 14.7264 7.91682C14.08 8.40322 13.888 9.16482 13.888 9.17122C13.8624 9.26722 13.7728 9.33762 13.6704 9.33762Z" fill="white"/>
<path d="M7.9744 10.1376C7.936 10.1376 7.8976 10.1312 7.8656 10.112C7.7568 10.0544 7.7184 9.9136 7.776 9.8048C7.9424 9.504 8.1536 9.2416 8.4032 9.0368C8.49919 8.95999 8.63999 8.9728 8.71679 9.0688C8.79359 9.1648 8.78079 9.3056 8.68479 9.3824C8.47999 9.5488 8.3072 9.7664 8.1664 10.0224C8.128 10.0992 8.0512 10.1376 7.9744 10.1376Z" fill="white"/>
</svg>
