<svg width="45" height="44" viewBox="0 0 45 44" fill="none" xmlns="http://www.w3.org/2000/svg">
<path d="M35.7566 23.716C35.8226 23.166 35.8666 22.594 35.8666 22C35.8666 21.406 35.8226 20.834 35.7346 20.284L39.4526 17.38C39.7826 17.116 39.8706 16.632 39.6726 16.258L36.1526 10.164C35.9326 9.76802 35.4706 9.63602 35.0746 9.76802L30.6966 11.528C29.7726 10.824 28.8046 10.252 27.7266 9.81202L27.0666 5.14802C27.0006 4.70802 26.6266 4.40002 26.1866 4.40002H19.1466C18.7066 4.40002 18.3546 4.70802 18.2886 5.14802L17.6286 9.81202C16.5506 10.252 15.5606 10.846 14.6586 11.528L10.2806 9.76802C9.88462 9.61402 9.42262 9.76802 9.20262 10.164L5.68262 16.258C5.46262 16.654 5.55062 17.116 5.90262 17.38L9.62062 20.284C9.53262 20.834 9.46662 21.428 9.46662 22C9.46662 22.572 9.51062 23.166 9.59862 23.716L5.88062 26.62C5.55062 26.884 5.46262 27.368 5.66062 27.742L9.18062 33.836C9.40062 34.232 9.86262 34.364 10.2586 34.232L14.6366 32.472C15.5606 33.176 16.5286 33.748 17.6066 34.188L18.2666 38.852C18.3546 39.292 18.7066 39.6 19.1466 39.6H26.1866C26.6266 39.6 27.0006 39.292 27.0446 38.852L27.7046 34.188C28.7826 33.748 29.7726 33.154 30.6746 32.472L35.0526 34.232C35.4486 34.386 35.9106 34.232 36.1306 33.836L39.6506 27.742C39.8706 27.346 39.7826 26.884 39.4306 26.62L35.7566 23.716ZM22.6666 28.6C19.0366 28.6 16.0666 25.63 16.0666 22C16.0666 18.37 19.0366 15.4 22.6666 15.4C26.2966 15.4 29.2666 18.37 29.2666 22C29.2666 25.63 26.2966 28.6 22.6666 28.6Z" fill="#CCCCCC"/>
</svg>
