<svg width="32" height="32" viewBox="0 0 32 32" fill="none" xmlns="http://www.w3.org/2000/svg">
<path d="M17.1 30.7L19.25 25.05C19.8 23.6 21.05 22.55 22.5 22.35C26.15 21.75 28.4 20 29.75 16.6C30.75 14.1 31.1 11.15 30.7 8.55001C30.3 5.75001 29 3.75001 27.15 3.00001C26.6 2.75001 26 2.65001 25.35 2.65001C22 2.65001 17.95 6.00001 16 10.3C14 6.00001 9.99998 2.65001 6.59998 2.65001C5.99998 2.65001 5.39998 2.80001 4.84998 3.00001C2.99998 3.75001 1.69998 5.75001 1.24998 8.55001C0.849977 11.15 1.19998 14.05 2.19998 16.6C3.54998 19.95 5.79998 21.75 9.44998 22.35C10.9 22.6 12.15 23.65 12.7 25.05L14.85 30.7H17.1Z" fill="#6FAD4C"/>
<path d="M17.55 29.45L22.65 16H22.7C22.75 16 22.8 16 22.85 15.95C22.85 15.95 23.8 15.15 25.05 15.1C26.6 15 27.55 14.15 27.6 14.1C27.7 14 27.7 13.85 27.6 13.75C27.5 13.65 27.35 13.65 27.25 13.75C27.25 13.75 26.4 14.55 25.05 14.6C24.1 14.65 23.35 15.05 22.9 15.3L25.05 9.54999C25.1 9.49999 25.1 9.39999 25.1 9.34999C25.1 9.09999 24.9 8.84999 24.6 8.84999H24.55C24.5 8.84999 24.4 8.89999 24.35 8.94999L24.2 9.09999L24.15 9.14999L16.85 25.15L17 26L24.6 9.29999L17.15 29.1L17.55 29.45ZM15.25 25.3L7.84999 9.14999C7.74999 8.94999 7.59999 8.84999 7.39999 8.84999C7.34999 8.84999 7.24999 8.84999 7.19999 8.89999C6.99999 8.99999 6.84999 9.24999 6.94999 9.49999L7.79999 11.8C7.29999 11.45 6.49999 11.05 5.39999 10.95C3.84999 10.8 2.74999 9.79999 2.74999 9.79999C2.64999 9.69999 2.49999 9.69999 2.39999 9.79999C2.29999 9.89999 2.29999 10.05 2.39999 10.15C2.44999 10.2 3.59999 11.25 5.34999 11.45C6.99999 11.6 7.99999 12.6 7.99999 12.6C8.04999 12.65 8.04999 12.65 8.09999 12.65L9.54999 16.5C8.89999 16.1 7.89999 15.6 6.64999 15.5C4.64999 15.3 3.29999 14.05 3.24999 14.05C3.14999 13.95 2.99999 13.95 2.89999 14.05C2.79999 14.15 2.79999 14.3 2.89999 14.4C2.94999 14.45 4.39999 15.8 6.54999 16C8.34999 16.15 9.54999 17.1 9.84999 17.4L14.25 29.15L14.7 28.95L10.35 17.35C10.35 17.3 10.35 17.2 10.3 17.15L7.39999 9.39999L15.1 26.3L15.25 25.3Z" fill="#406D2A"/>
<path d="M17 31L16.8 24.95C16.85 23.4 18 21.05 19.3 20.05C21.65 18.25 23.1 16.4 23.1 12.4C23.1 7.09999 19.9 1.3 16 1.3C12.1 1.3 8.89998 7.14999 8.89998 12.45C8.89998 16.4 10.35 18.25 12.7 20.05C14.1 21.15 15.15 23.25 15.15 24.95L15 31H17Z" fill="#82C64E"/>
<path d="M31 5.9C30.25 4.1 29 2.8 27.5 2.2C26.85 1.95 26.1 1.8 25.35 1.8C24.2 1.8 23 2.1 21.8 2.7C21.55 2.8 21.2 2.75 21 2.5C19.55 0.9 17.8 0 16 0C14.2 0 12.5 0.85 11.1 2.4C10.85 2.65 10.45 2.75 10.15 2.6C9.00002 2.05 7.80002 1.75 6.70002 1.75C5.95002 1.75 5.20002 1.9 4.55002 2.15C3.00002 2.75 1.80002 4.05 1.05002 5.85C-0.34998 9 -0.19998 13.35 1.25002 16.95C3.20002 21.75 6.75002 22.85 9.25002 23.25C10.35 23.45 11.3 24.2 11.75 25.3L13.9 30.9C14.05 31.25 14.3 31.55 14.6 31.7C14.75 31.75 15.3 32 16 32C16.5 32 16.95 31.9 17.35 31.65C17.65 31.5 17.9 31.2 18.05 30.85L20.2 25.25C20.6 24.15 21.55 23.35 22.7 23.2C27.9 22.35 29.75 19.2 30.7 16.9C32.2 13.35 32.35 9 31 5.9ZM14.45 28.05L13.15 24.7C12.55 23.15 11.15 21.95 9.50002 21.7C6.60002 21.25 4.15002 20 2.65002 16.4C0.65002 11.55 1.40002 5.05 5.05002 3.6C5.55002 3.4 6.10002 3.3 6.65002 3.3C7.85002 3.3 9.15002 3.75 10.4 4.55C10.6 4.7 10.7 5 10.55 5.2C9.35002 7.35 8.60002 10 8.60002 12.5C8.60002 16.5 10.05 18.4 12.5 20.3C12.75 20.5 13.05 20.75 13.3 21.05L14.9 24.6L14.8 28C14.8 28.2 14.55 28.25 14.45 28.05ZM16.15 30.5H15.85C15.5 30.5 15.25 30.3 15.25 29.95L15.95 9C15.95 9 15.95 8.2 16 8.2V9L16.7 30C16.7 30.45 16.15 30.5 16.15 30.5ZM21.9 11.05C21.8 11 21.65 11.05 21.55 11.15C21.55 11.15 20.75 12.85 18.95 13.75C17.9 14.3 17.15 15.05 16.7 15.6L16.55 11.55C16.55 11.55 17.15 10.25 18.6 9.5C20.15 8.7 20.85 7.25 20.9 7.2C20.95 7.1 20.9 6.95 20.8 6.85C20.7 6.8 20.55 6.85 20.45 6.95C20.45 6.95 19.8 8.3 18.4 9C17.5 9.45 16.9 10.1 16.55 10.6L16.45 7.65C16.45 7.4 16.2 7.15 15.95 7.15C15.7 7.15 15.45 7.35 15.45 7.65L15.25 13.25C14.9 12.85 14.35 12.35 13.6 12.05C12.35 11.55 11.75 10.55 11.75 10.55C11.7 10.45 11.55 10.4 11.4 10.45C11.3 10.5 11.25 10.65 11.3 10.8C11.35 10.85 11.95 11.95 13.4 12.55C14.5 13 15.1 13.9 15.2 14.05L15 22.55C14.45 21.5 13.65 20.55 12.85 19.9C10.5 18.05 9.15002 16.25 9.15002 12.5C9.15002 7.5 12.15 1.65 16 1.65C19.85 1.65 22.8 7.5 22.8 12.5C22.8 16.35 21.45 18.1 19.1 19.9C18.35 20.45 17.55 21.5 17 22.65L16.75 16.5C17.05 15.95 17.8 14.9 19.2 14.2C21.15 13.2 22 11.45 22.05 11.35C22.1 11.25 22.05 11.1 21.9 11.05ZM29.35 16.4C27.85 20.05 25.4 21.3 22.5 21.75C20.85 22 19.45 23.2 18.85 24.75L17.5 28.2C17.45 28.4 17.15 28.35 17.15 28.15L17.05 24.7L18.8 20.9C19 20.7 19.2 20.5 19.4 20.35C21.8 18.5 23.3 16.55 23.3 12.55C23.3 10.05 22.6 7.4 21.4 5.3C21.25 5.05 21.35 4.8 21.55 4.65C22.8 3.85 24.15 3.35 25.4 3.35C25.95 3.35 26.5 3.45 27 3.65C30.6 5.05 31.35 11.5 29.35 16.4Z" fill="#184C28"/>
<path d="M19.25 12.3C19.15 12.3 19.1 12.25 19.05 12.2C18.95 12.1 19 11.95 19.1 11.85C19.6 11.5 20.1 11.05 20.45 10.55C20.55 10.45 20.7 10.4 20.8 10.5C20.9 10.6 20.95 10.75 20.85 10.85C20.45 11.4 19.95 11.85 19.35 12.25C19.35 12.3 19.3 12.3 19.25 12.3Z" fill="white"/>
<path d="M11.6 7.19999H11.5C11.35 7.14999 11.3 6.99999 11.4 6.84999C12.05 5.44999 12.85 4.29999 13.75 3.54999C13.85 3.44999 14 3.49999 14.05 3.59999C14.1 3.69999 14.1 3.84999 14 3.94999C13.15 4.64999 12.4 5.74999 11.75 7.04999C11.75 7.14999 11.7 7.19999 11.6 7.19999Z" fill="white"/>
<path d="M3.10002 9C3.23809 9 3.35002 8.88807 3.35002 8.75C3.35002 8.61193 3.23809 8.5 3.10002 8.5C2.96195 8.5 2.85002 8.61193 2.85002 8.75C2.85002 8.88807 2.96195 9 3.10002 9Z" fill="white"/>
<path d="M15 3.34999C15.1381 3.34999 15.25 3.23807 15.25 3.09999C15.25 2.96192 15.1381 2.84999 15 2.84999C14.8619 2.84999 14.75 2.96192 14.75 3.09999C14.75 3.23807 14.8619 3.34999 15 3.34999Z" fill="white"/>
<path d="M18.4 13.1C18.5381 13.1 18.65 12.9881 18.65 12.85C18.65 12.7119 18.5381 12.6 18.4 12.6C18.262 12.6 18.15 12.7119 18.15 12.85C18.15 12.9881 18.262 13.1 18.4 13.1Z" fill="white"/>
<path d="M5.45001 10.2H5.40001C4.80001 10.05 4.25001 9.85 3.75001 9.55C3.65001 9.5 3.60001 9.3 3.65001 9.2C3.75001 9.05 3.90001 9 4.00001 9.1C4.45001 9.4 5.00001 9.6 5.50001 9.7C5.65001 9.75 5.70001 9.85 5.70001 10C5.70001 10.1 5.60001 10.2 5.45001 10.2Z" fill="white"/>
</svg>
