<svg width="32" height="32" viewBox="0 0 32 32" fill="none" xmlns="http://www.w3.org/2000/svg">
<path d="M2.82879 16.9472C2.80959 17.0752 2.79039 17.1968 2.77759 17.3248C2.55999 19.2768 3.14239 21.2032 4.41599 22.7456C6.91839 25.7728 14.0352 28.8576 14.1056 28.8896L14.1312 28.9024C14.1632 28.9216 17.5232 30.7968 19.4432 29.2672C20.8768 28.1216 20.5824 26.3616 20.2496 24.3264L20.224 24.1856C20.1664 23.936 18.496 16.4352 16.0768 13.5168C14.6624 11.808 12.6336 10.88 10.56 10.7904C10.7648 10.4576 10.8864 10.0864 10.9184 9.6768L11.6224 9.1136L11.6416 9.1712C12.4224 9.2928 13.1904 9.504 13.9136 9.8112C15.2704 10.3872 16.4864 11.296 17.4272 12.4288C18.592 13.8368 19.7056 16.1984 20.736 19.4496C21.4848 21.8048 21.9072 23.7504 21.9264 23.8336C21.9328 23.8592 21.9392 23.8848 21.9392 23.9104L21.9648 24.0512C22.1376 25.12 22.3232 26.2336 22.2336 27.296C22.1184 28.6784 21.5488 29.792 20.5312 30.6048C19.296 31.5904 17.6 31.84 15.6288 31.3344C14.4896 31.04 13.5936 30.5856 13.3184 30.4384C12.9536 30.2784 11.2832 29.536 9.33119 28.4672C6.34239 26.8288 4.22399 25.2736 3.03999 23.8336C2.08639 22.6816 1.45279 21.3696 1.15199 19.9296C0.998393 19.1808 0.940793 18.4064 0.985593 17.6384C0.985593 17.6384 0.972793 17.3376 1.16479 16.9024L2.82879 16.9472Z" fill="#8A1100"/>
<path d="M14.592 21.9328C11.5392 21.6192 9.29921 20.9728 9.20961 20.9472C8.88961 20.8576 8.66561 20.576 8.64001 20.2496C8.62721 20.1216 8.40321 17.088 8.94721 13.3952C9.26721 11.2064 9.79201 9.24161 10.5024 7.55841C11.4112 5.40801 12.6336 3.69281 14.1376 2.47041C14.304 2.33601 14.5152 2.27841 14.72 2.29761C14.784 2.30401 14.8416 2.31681 14.9056 2.33601C15.168 2.42561 15.36 2.64961 15.4176 2.91841L15.6032 3.78881C16.8 2.93761 18.1824 2.25921 19.7312 1.77281C19.84 1.74081 19.9488 1.72801 20.0512 1.74081C20.352 1.77281 20.6208 1.97761 20.7232 2.28481L21.024 3.19361C22.624 2.53441 24.3648 2.03521 26.208 1.71521C26.2784 1.70241 26.3552 1.70241 26.4256 1.70881C26.5664 1.72161 26.7008 1.77281 26.816 1.86241C26.9888 1.99041 27.104 2.18881 27.1296 2.40001L27.2448 3.32801C28.1664 3.04001 28.896 3.04641 29.3056 3.09121C29.4912 3.11041 29.6064 3.13601 29.6384 3.14241C29.9904 3.23201 30.24 3.54561 30.24 3.91041C30.24 4.03201 30.2144 4.97921 29.5168 6.24001L30.432 6.54721C30.6368 6.61761 30.8096 6.77121 30.8992 6.96321C30.9888 7.16161 30.9952 7.38561 30.9184 7.59041C30.2336 9.31201 29.3952 10.8928 28.4288 12.3136L29.2608 12.7936C29.6384 13.0112 29.7664 13.4912 29.5552 13.8688C28.7616 15.2832 27.8208 16.4928 26.7456 17.4912L27.5584 17.8496C27.8144 17.9584 27.9872 18.1952 28.0256 18.4704C28.064 18.7456 27.9552 19.0208 27.7376 19.1936C24.0384 22.1952 18.5472 22.336 14.592 21.9328Z" fill="#5EC865"/>
<path d="M16.8128 14.6496L17.8304 13.824C18.3424 13.408 19.0016 13.2288 19.6544 13.3312C19.9488 13.376 20.2944 13.4208 20.6784 13.4592C21.7536 13.568 23.1552 13.632 24.7104 13.504C24.8384 13.4912 24.9472 13.3888 24.9472 13.2544C24.9472 13.1072 24.8192 12.992 24.6784 12.9984C22.8736 13.152 21.248 13.0304 20.1408 12.8832C19.7632 12.832 19.6288 12.352 19.9232 12.1152L21.2416 11.04C21.728 10.6432 22.3616 10.4576 22.9824 10.5344C23.104 10.5472 23.2384 10.5664 23.3856 10.5792C24.0896 10.6496 25.0176 10.7136 26.08 10.7136C26.2144 10.7136 26.336 10.6112 26.3424 10.4768C26.3488 10.3296 26.2336 10.2144 26.0928 10.2144C25.1264 10.2144 24.2624 10.1632 23.5904 10.0928C23.2 10.0544 23.0592 9.56799 23.36 9.31839L26.5088 6.75839C26.6304 6.66239 26.6368 6.47039 26.5088 6.36799C26.4192 6.29119 26.2784 6.29759 26.1888 6.37439L23.0528 8.92159C22.752 9.16479 22.304 8.92159 22.3424 8.53759C22.4192 7.86559 22.5344 7.01439 22.7328 6.07999C22.7584 5.94559 22.6752 5.81119 22.5408 5.78559C22.4064 5.75999 22.272 5.84319 22.2464 5.97759C21.984 7.22559 21.856 8.29439 21.792 9.03679C21.7344 9.66399 21.4336 10.2464 20.9408 10.6432L19.6224 11.7184C19.328 11.9616 18.8864 11.7312 18.912 11.3472C18.9952 10.24 19.2064 8.62719 19.7248 6.89919C19.7696 6.75839 19.68 6.61119 19.5328 6.57919C19.4048 6.55359 19.2768 6.63679 19.2384 6.76479C18.6304 8.79359 18.4384 10.624 18.3744 11.744C18.3424 12.3968 18.0288 13.0048 17.5168 13.4208L16.4928 14.2528L16.8128 14.6496Z" fill="#007500"/>
<path d="M23.6352 7.67362C23.5712 7.66722 23.5072 7.63522 23.4688 7.58402C23.3792 7.47522 23.3984 7.32161 23.5072 7.23201L24.64 6.30401C24.7488 6.21441 24.9024 6.23361 24.992 6.34241C25.0816 6.45121 25.0624 6.60481 24.9536 6.69441L23.8144 7.62242C23.7696 7.66722 23.6992 7.68002 23.6352 7.67362ZM19.8912 10.72C19.8272 10.7136 19.7632 10.6816 19.7248 10.6304C19.6352 10.5216 19.6544 10.368 19.7632 10.2784L20.6656 9.54882C20.7744 9.45922 20.928 9.47842 21.0176 9.58722C21.1072 9.69602 21.088 9.84962 20.9792 9.93922L20.0768 10.6688C20.0192 10.7072 19.9552 10.7264 19.8912 10.72ZM16.096 13.8048C16.032 13.7984 15.968 13.7664 15.9296 13.7152C15.84 13.6064 15.8592 13.4528 15.968 13.3632L16.8704 12.6336C16.9792 12.544 17.1328 12.5632 17.2224 12.672C17.312 12.7808 17.2928 12.9344 17.184 13.024L16.2816 13.7536C16.2304 13.792 16.16 13.8112 16.096 13.8048Z" fill="white"/>
<path d="M25.9933 5.86751C26.0093 5.7128 25.8968 5.57446 25.7421 5.5585C25.5874 5.54254 25.449 5.65502 25.4331 5.80972C25.4171 5.96442 25.5296 6.10277 25.6843 6.11873C25.839 6.13469 25.9774 6.02221 25.9933 5.86751Z" fill="white"/>
<path d="M19.6032 29.4528C21.184 28.192 20.8192 26.2272 20.4736 24.1344C20.4736 24.1344 18.7904 16.3904 16.2752 13.3504C13.5616 10.0736 8.66562 9.568 5.33762 12.224C2.06722 14.8352 1.47202 19.584 4.21762 22.8992C6.79042 26.0096 14.0032 29.1136 14.0032 29.1136C14.0032 29.1136 17.5296 31.1104 19.6032 29.4528Z" fill="#F10A00"/>
<path d="M15.2448 12.3264C15.3472 10.8096 15.6032 8.9408 16.1792 7.0144C16.2176 6.88 16.1408 6.7392 16.0128 6.7008C15.8784 6.6624 15.7376 6.7392 15.6992 6.8672C15.1552 8.6912 14.8864 10.4704 14.7712 11.9616C14.9376 12.0768 15.0912 12.1984 15.2448 12.3264ZM24.1216 16.672C24.1088 16.5312 23.9872 16.4352 23.8528 16.4416C21.6128 16.6336 19.52 16.4416 17.9456 16.192C18.0288 16.3712 18.1056 16.5504 18.1824 16.736C18.5536 16.7936 18.944 16.8384 19.36 16.8832C20.704 17.024 22.2656 17.0816 23.8976 16.9408C24.032 16.9344 24.1344 16.8128 24.1216 16.672Z" fill="#007500"/>
<path d="M11.5776 24.2112C11.7056 24.3712 11.9424 24.3968 12.1088 24.2688C12.2688 24.1408 12.2944 23.9104 12.16 23.7504C12.032 23.5904 11.7952 23.5648 11.6288 23.6928C11.4688 23.8208 11.4496 24.0512 11.5776 24.2112ZM12.6464 13.824C12.7744 13.984 13.0112 14.0096 13.1776 13.8816C13.3376 13.7536 13.3632 13.5232 13.2288 13.3632C13.0944 13.2032 12.864 13.1776 12.6976 13.3056C12.544 13.4336 12.5184 13.6704 12.6464 13.824ZM11.936 20.7488C12.064 20.9088 12.3008 20.9344 12.4672 20.8064C12.6272 20.6784 12.6528 20.448 12.5184 20.288C12.384 20.128 12.1536 20.1024 11.9872 20.2304C11.8272 20.3584 11.8016 20.5888 11.936 20.7488ZM8.76802 16.9216C8.89602 17.0816 9.13282 17.1072 9.29922 16.9792C9.45922 16.8512 9.48482 16.6208 9.35042 16.4608C9.22242 16.3008 8.98562 16.2752 8.81922 16.4032C8.65922 16.5312 8.64002 16.768 8.76802 16.9216ZM8.05762 23.8464C8.18562 24.0064 8.42242 24.032 8.58882 23.904C8.74882 23.776 8.77442 23.5456 8.64002 23.3856C8.51202 23.2256 8.27522 23.2 8.10882 23.328C7.94882 23.456 7.92322 23.6864 8.05762 23.8464ZM4.88962 20.0192C5.01762 20.1792 5.25442 20.2048 5.42082 20.0768C5.58082 19.9488 5.60642 19.7184 5.47202 19.5584C5.34402 19.3984 5.10722 19.3728 4.94082 19.5008C4.77442 19.6288 4.75522 19.8656 4.88962 20.0192ZM15.8144 17.6512C15.9424 17.8112 16.1792 17.8368 16.3456 17.7088C16.5056 17.5808 16.5312 17.3504 16.3968 17.1904C16.2688 17.0304 16.032 17.0048 15.8656 17.1328C15.7056 17.2608 15.6864 17.4912 15.8144 17.6512ZM15.0976 24.576C15.2256 24.736 15.4624 24.7616 15.6288 24.6336C15.7888 24.5056 15.8144 24.2752 15.68 24.1152C15.552 23.9552 15.3152 23.9296 15.1488 24.0576C14.9952 24.1792 14.9696 24.416 15.0976 24.576ZM15.456 21.1136C15.584 21.2736 15.8208 21.2992 15.9872 21.1712C16.1472 21.0432 16.1728 20.8128 16.0384 20.6528C15.9104 20.4928 15.6736 20.4672 15.5072 20.5952C15.3472 20.7232 15.328 20.9536 15.456 21.1136ZM14.7456 28.032C14.8736 28.192 15.1104 28.2176 15.2768 28.0896C15.4368 27.9616 15.4624 27.7312 15.328 27.5712C15.2 27.4112 14.9632 27.3856 14.7968 27.5136C14.6368 27.6416 14.6112 27.8784 14.7456 28.032ZM18.624 24.9344C18.752 25.0944 18.9888 25.12 19.1552 24.992C19.3152 24.864 19.3408 24.6336 19.2064 24.4736C19.0784 24.3136 18.8416 24.288 18.6752 24.416C18.5152 24.544 18.4896 24.7808 18.624 24.9344ZM18.2656 28.3968C18.3936 28.5568 18.6304 28.5824 18.7968 28.4544C18.9568 28.3264 18.9824 28.096 18.848 27.936C18.7136 27.776 18.4832 27.7504 18.3168 27.8784C18.1504 28.0064 18.1376 28.2368 18.2656 28.3968Z" fill="#ECD8A1"/>
<path d="M6.0032 10.7072C6.0864 10.816 6.24 10.8416 6.3552 10.7648C6.464 10.688 6.4896 10.5344 6.4128 10.4192C6.37246 10.3666 6.3136 10.3314 6.2482 10.3207C6.18281 10.31 6.11579 10.3246 6.0608 10.3616C5.94559 10.4448 5.91999 10.5984 6.0032 10.7072Z" fill="white"/>
<path d="M18.9824 21.4784C18.8544 21.3184 18.8736 21.088 19.0336 20.96C19.1296 20.8832 19.2512 20.864 19.36 20.8896C19.424 21.1008 19.4816 21.3056 19.5392 21.504L19.5072 21.536C19.3472 21.6576 19.1104 21.632 18.9824 21.4784ZM16.1792 14.0992C16.0512 13.9456 16.0704 13.7152 16.224 13.5872C16.3712 13.7728 16.512 13.9776 16.6464 14.1888C16.4992 14.272 16.2944 14.24 16.1792 14.0992ZM11.2768 27.1488C11.4368 27.0208 11.6736 27.0464 11.808 27.2064C11.936 27.3664 11.9168 27.5968 11.7568 27.7248C11.744 27.7312 11.7312 27.744 11.7184 27.7504C11.5328 27.6544 11.3408 27.5584 11.1424 27.456C11.1296 27.3408 11.1808 27.2256 11.2768 27.1488ZM5.11362 23.0208C5.22882 23.1616 5.22242 23.3536 5.11362 23.488C4.92802 23.3088 4.75522 23.136 4.59521 22.9568C4.75522 22.8352 4.98562 22.8608 5.11362 23.0208Z" fill="#ECD8A1"/>
<path d="M8.79358 10.3424C8.85758 10.2976 8.89598 10.2208 8.88958 10.1376C8.88318 10.0096 8.76798 9.9136 8.63998 9.92C8.12158 9.952 7.59678 10.0224 7.09118 10.1376C6.96318 10.1632 6.88638 10.2912 6.91198 10.4128C6.94398 10.5408 7.06558 10.6176 7.19358 10.5856C7.67358 10.4768 8.16638 10.4064 8.66558 10.3808C8.71038 10.3808 8.75518 10.368 8.79358 10.3424Z" fill="white"/>
<path d="M16.992 30.2976C16.6656 30.2656 16.3264 30.2016 15.968 30.1056C14.88 29.8176 14.0416 29.3504 13.9264 29.28C13.7664 29.2096 12.032 28.4288 10.0352 27.3088C7.21921 25.728 5.24801 24.256 4.16641 22.9312C2.81601 21.2736 2.19521 19.2064 2.41921 17.1072C2.63681 15.0336 3.64801 13.1648 5.26721 11.8464C6.88641 10.528 8.92801 9.9264 11.0144 10.1376C11.0336 10.1376 11.0464 10.144 11.0656 10.144C13.1712 10.3744 15.0656 11.4112 16.4096 13.0624C17.4656 14.3552 18.496 16.6016 19.4816 19.7248C20.2112 22.0416 20.64 24.0064 20.6464 24.0256V24.0384L20.672 24.1856C21.0176 26.2976 21.3504 28.2944 19.7184 29.6192C19.0208 30.176 18.0928 30.4064 16.992 30.2976ZM10.9632 10.6304C9.00481 10.4256 7.09761 10.9952 5.58081 12.2304C4.06401 13.4656 3.11681 15.2128 2.91201 17.1584C2.70721 19.1232 3.28961 21.0624 4.55041 22.6176C7.03361 25.6704 14.0672 28.8064 14.1376 28.8384L14.1632 28.8512C14.1952 28.8704 17.5168 30.7712 19.4048 29.2352C20.8128 28.0896 20.5184 26.3168 20.1792 24.2688L20.1536 24.128C20.096 23.8784 18.4192 16.3264 16.0192 13.376C14.7584 11.8272 12.9792 10.8544 11.008 10.6368C10.9952 10.6304 10.9824 10.6304 10.9632 10.6304Z" fill="#8A1100"/>
<path d="M7.7504 21.1904C7.70561 21.184 7.66721 21.1712 7.62881 21.1392C7.52001 21.056 7.49441 20.9024 7.57761 20.7872C8.2624 19.8656 9.1392 18.9632 10.112 18.1696C10.3744 17.9584 10.6368 17.7536 10.9056 17.5616C11.0208 17.4784 11.1744 17.5104 11.2576 17.6192C11.3408 17.7344 11.3152 17.888 11.2 17.9712C10.9376 18.1568 10.6816 18.3552 10.432 18.56C9.4912 19.328 8.64 20.1984 7.9808 21.088C7.9232 21.1648 7.84 21.1968 7.7504 21.1904Z" fill="white"/>
<path d="M1.75998 16.9024C1.68318 16.896 1.59998 16.8832 1.52318 16.8704C1.16478 16.8 0.902383 16.4864 0.915183 16.1152C0.921583 15.6544 1.08798 14.3488 1.54878 13.248C1.99678 12.1728 2.64958 11.1424 3.26398 10.5472C3.42398 10.3936 3.64158 10.3168 3.86558 10.3424C3.90398 10.3488 3.94878 10.3552 3.98718 10.368L4.12798 10.4064L4.12158 10.2592C4.10238 9.9968 4.23038 9.7408 4.44798 9.5936C5.15198 9.1136 6.29758 8.6848 7.43678 8.4672C8.31358 8.3008 9.33758 8.3136 9.99678 8.384C10.144 8.3968 10.272 8.416 10.3744 8.4352C10.7328 8.5056 10.9952 8.8192 10.9888 9.184C10.9696 10.2784 10.336 11.168 9.19678 11.68C8.88318 11.8208 8.56958 11.9168 8.30718 11.9808C9.07518 13.3056 9.17758 15.0848 8.42878 15.6928C8.17918 15.8976 7.84638 15.9744 7.41758 15.9296C6.68158 15.8528 5.56798 15.3984 4.82558 14.7904C4.71678 15.0208 4.57598 15.2832 4.38398 15.552C3.69918 16.5312 2.77118 17.0048 1.75998 16.9024Z" fill="#5EC865"/>
<path d="M31.1872 5.92639C30.8864 5.7664 30.7456 5.408 30.8416 5.0752C31.0208 4.4288 31.0272 3.99359 31.0272 3.90399C31.0272 3.17439 30.528 2.54079 29.824 2.36799C29.7536 2.34879 29.6064 2.31679 29.3824 2.29759C29.1776 2.27839 28.9024 2.26559 28.5696 2.27839C28.2112 2.29759 27.8848 2.09279 27.7312 1.76639C27.6736 1.63839 27.6224 1.56159 27.6224 1.56159C27.3472 1.17759 26.9312 0.953595 26.496 0.908795C26.3552 0.895995 26.208 0.895995 26.0608 0.921595C24.7296 1.15199 23.4496 1.47199 22.2336 1.88159C21.8624 2.00319 21.4656 1.85599 21.248 1.53599C20.8192 0.908795 20.1216 0.940795 20.1216 0.940795C19.9104 0.921595 19.6992 0.940795 19.4816 1.00479C18.5216 1.30559 17.6192 1.68319 16.7808 2.11839C16.4416 2.29759 16.0256 2.22719 15.7568 1.95199C15.5904 1.78559 15.3856 1.65119 15.1616 1.57439C15.04 1.52959 14.9184 1.50399 14.7968 1.49119C14.3808 1.44639 13.9648 1.56799 13.632 1.83679C13.632 1.83679 11.2128 3.95519 9.87522 6.9632C9.71522 7.328 9.34402 7.5648 8.94722 7.5648H8.90242C8.42242 7.5648 7.94882 7.4112 7.57762 7.10399C6.26562 6.048 5.08802 5.52959 4.07042 5.58079C3.30882 5.61919 2.88002 5.9584 2.72002 6.11199C2.16322 6.5792 1.88802 7.25759 1.95202 8.01279C1.95202 8.01279 2.05442 8.65919 2.47682 9.43359C2.64962 9.75359 2.62402 10.144 2.39362 10.432C1.96482 10.9696 1.28002 11.9168 0.851222 12.96C0.371222 14.1184 0.172822 15.5008 0.160022 16.1024C0.147222 16.832 0.665622 17.472 1.38242 17.6064C1.38242 17.6064 2.97602 17.8304 4.52482 16.4416C4.87682 16.128 5.36962 16.0512 5.79842 16.2368C6.34242 16.4736 6.88642 16.6336 7.33442 16.6784C7.96162 16.7424 8.48642 16.608 8.89602 16.2816C9.75362 15.584 9.72802 14.3232 9.63202 13.6384C9.61282 13.5168 9.59362 13.3632 9.55522 13.1968C9.45922 12.7552 9.65122 12.3072 10.0288 12.0576C10.5472 11.7056 10.944 11.3152 10.944 11.3152C11.4496 10.7264 11.7184 9.99039 11.7376 9.19679C11.744 8.92159 11.6736 8.6592 11.5456 8.4352C11.3408 8.0768 11.328 7.64799 11.5008 7.27679C12.032 6.14399 12.6912 5.08159 13.5104 4.16639C13.9648 3.65439 14.8096 3.87839 14.9568 4.55039L15.0976 5.21599C15.2192 5.10719 15.3408 4.99839 15.4688 4.88959C16.5952 3.97439 17.8496 3.30239 19.1488 2.81599C19.5968 2.64959 20.0896 2.88639 20.2368 3.34079L20.544 4.27519C22.2144 3.50079 23.9104 2.99519 25.4592 2.66879C25.9328 2.56639 26.3936 2.89919 26.4576 3.38559L26.592 4.44799C26.592 4.44799 27.2512 3.99359 28.5888 3.91679C29.0624 3.89119 29.4208 4.33919 29.2864 4.79359C29.1328 5.28639 28.8448 5.94559 28.3008 6.66879L29.3312 7.01439C29.7984 7.16799 30.0288 7.69279 29.8304 8.14079C29.1968 9.5744 28.3648 11.1104 27.2768 12.5696L28.128 13.0624C28.5376 13.2992 28.672 13.8304 28.416 14.2336C27.6736 15.4048 26.7584 16.4928 25.6384 17.4016C25.5104 17.504 25.376 17.6064 25.2416 17.7024L25.8624 17.9776C26.4832 18.2528 26.5408 19.1232 25.952 19.4624C24.1472 20.512 22.0288 21.0176 19.9232 21.2096C20.0896 21.792 20.2304 22.3232 20.3392 22.7648C20.6848 22.7264 21.024 22.688 21.3568 22.6368C24.128 22.2144 26.432 21.2672 28.2112 19.8336C28.5632 19.5456 28.7936 19.1232 28.8192 18.6688C28.8384 18.2848 28.7232 17.9264 28.512 17.6384C28.3136 17.3696 28.3328 16.9984 28.544 16.7424C29.1648 15.9936 29.7664 15.1808 30.2464 14.2592C30.8032 13.1776 30.5088 12.6144 30.144 12.3264C29.8496 12.096 29.7792 11.6864 29.9648 11.3664C30.592 10.2912 31.1552 9.1328 31.6416 7.91679C31.7568 7.6224 31.8336 7.27039 31.8016 6.95679C31.7312 6.33599 31.4752 6.07999 31.1872 5.92639ZM5.62562 8.16C5.10722 8.3392 4.66562 8.57599 4.36482 8.7488C4.11522 8.896 3.79522 8.8064 3.66082 8.5504C3.21922 7.6992 3.69282 7.2512 3.69282 7.2512C3.69282 7.2512 4.45442 6.36799 5.75362 7.49439C5.98402 7.6864 5.90722 8.0576 5.62562 8.16ZM3.12962 11.8016C3.41122 11.4176 3.98082 11.4112 4.28162 11.776L4.81282 12.4288C4.94082 12.5888 5.12642 12.6848 5.31842 12.704C5.52322 12.7232 5.74082 12.6592 5.90722 12.5056C6.19522 12.2304 6.21442 11.776 5.95842 11.4688L5.48482 10.8864C5.17762 10.5088 5.31842 9.93919 5.77282 9.75359C6.52802 9.43999 7.71202 9.0688 9.06882 9.0688C9.63842 9.0688 9.95202 9.72799 9.59362 10.1696C8.97922 10.9376 8.28802 11.2512 7.75682 11.3792C7.39842 11.4624 7.23202 11.8784 7.43042 12.1984C7.81442 12.8256 8.23682 13.7792 8.10882 14.7904C8.08962 14.944 8.01282 15.0528 7.93602 15.1104C7.84642 15.1808 7.68002 15.2192 7.47522 15.1808C6.33602 14.9824 5.60642 14.5152 5.15842 14.0928C4.88322 13.8368 4.43522 13.92 4.28802 14.2656C4.03202 14.848 3.55842 15.552 2.69442 15.904C2.20802 16.1024 1.68962 15.68 1.77922 15.1616C2.07362 13.504 2.66882 12.4224 3.12962 11.8016Z" fill="#007500"/>
<path d="M12.2597 17.169C12.2742 17.0284 12.1719 16.9026 12.0313 16.8881C11.8906 16.8736 11.7649 16.9758 11.7504 17.1165C11.7359 17.2571 11.8381 17.3829 11.9787 17.3974C12.1194 17.4119 12.2451 17.3097 12.2597 17.169Z" fill="white"/>
<path d="M6.11842 10.656C6.20802 10.7584 6.36802 10.7712 6.47042 10.6816C6.57282 10.592 6.58562 10.4384 6.49602 10.336C6.40642 10.2336 6.24642 10.2208 6.14402 10.3104C6.04162 10.4 6.02882 10.5536 6.11842 10.656Z" fill="white"/>
<path d="M8.8704 10.0608C8.928 10.0096 8.96 9.9328 8.9472 9.8496C8.928 9.7216 8.8064 9.632 8.6784 9.6512C8.16 9.728 7.648 9.8432 7.1552 9.99681C7.03359 10.0352 6.96319 10.1696 7.00159 10.2912C7.03999 10.4128 7.17439 10.4832 7.296 10.4448C7.7632 10.2976 8.2496 10.1888 8.7424 10.1184C8.7936 10.1056 8.8384 10.0864 8.8704 10.0608Z" fill="white"/>
</svg>
