<svg width="32" height="32" viewBox="0 0 32 32" fill="none" xmlns="http://www.w3.org/2000/svg">
<path d="M15.95 13.7V8.45001C18.2 7.80001 20.65 7.15001 23.2 6.65001V12.25H24.7V6.35001C26.55 6.00001 28.5 5.75001 30.5 5.55001C30.9 5.50001 31.2 5.15001 31.2 4.75001C31.15 4.35001 30.8 4.05001 30.4 4.05001C14.9 5.50001 1.55001 12.4 1.45001 12.45C1.10001 12.65 0.950005 13.1 1.15 13.45C1.3 13.7 1.55 13.85 1.8 13.85C1.9 13.85 2.05001 13.8 2.15001 13.75C2.20001 13.75 3.85 12.85 6.65 11.7V16.4H8.15V11.1C9.95 10.4 12.05 9.60002 14.45 8.85002V13.65H15.95V13.7Z" fill="#88A501"/>
<path d="M5.59998 19.65C4.29998 19.65 3.09998 19 2.09998 17.7C1.89998 17.45 1.89998 17.05 2.09998 16.8C2.29998 16.55 2.64998 16.45 2.99998 16.55C3.04998 16.55 3.64998 16.8 4.54998 16.7C4.74998 16.65 4.89998 16.5 4.89998 16.3C4.89998 15.8 4.89998 15.25 4.84998 14.8C4.84998 14.45 4.99998 14.15 5.34998 14.05C5.64998 13.95 5.99998 14.05 6.19998 14.3C6.44998 14.6 6.79998 15.05 7.14998 15.4C7.29998 15.55 7.49998 15.55 7.69998 15.45C8.39998 14.9 8.79998 14.3 8.79998 14.3C8.94998 14.05 9.24998 13.9 9.59998 13.95C9.89998 14 10.15 14.25 10.2 14.55C10.55 16.7 9.49998 18.55 7.44998 19.4C6.74998 19.55 6.14998 19.65 5.59998 19.65ZM14.6 16.75C12.95 16.75 11.65 15.9 10.75 14.2C10.6 13.9 10.65 13.55 10.9 13.3C11.15 13.05 11.5 13.05 11.8 13.2C11.85 13.2 12.35 13.5 13.2 13.6C13.45 13.6 13.7 13.45 13.75 13.15C13.8 12.7 13.9 12.15 13.95 11.75C14 11.4 14.25 11.15 14.55 11.1C14.9 11.05 15.2 11.2 15.35 11.5C15.5 11.85 15.8 12.25 16.05 12.6C16.2 12.85 16.5 12.9 16.75 12.75C17.5 12.35 17.9 11.85 17.9 11.85C18.1 11.6 18.45 11.5 18.75 11.6C19.05 11.7 19.25 12 19.25 12.3C19.25 14.5 17.9 16.15 15.75 16.6C15.3 16.7 14.95 16.75 14.6 16.75ZM23.85 14.1C21.9 14.1 20.5 13.05 19.75 11.05C19.65 10.75 19.75 10.4 20 10.2C20.25 9.99999 20.65 9.99999 20.9 10.2C20.9 10.2 21.45 10.6 22.3 10.75C22.55 10.8 22.75 10.65 22.8 10.45C22.95 9.99999 23.1 9.44999 23.2 9.04999C23.25 8.74999 23.55 8.49999 23.9 8.44999C24.25 8.44999 24.55 8.64999 24.65 8.94999C24.8 9.29999 25 9.79999 25.2 10.2C25.3 10.4 25.55 10.5 25.8 10.4C26.6 10.1 27.1 9.59999 27.1 9.59999C27.35 9.39999 27.65 9.34999 27.95 9.49999C28.25 9.64999 28.4 9.94999 28.35 10.25C28.05 12.45 26.55 13.9 24.35 14.1H23.85Z" fill="#3B6700"/>
<path d="M24.55 11.95C22.2 11.95 20.2 13.2 19.65 15.3C18.8 14.75 17.75 14.45 16.55 14.45C14.2 14.45 12.2 15.7 11.65 17.8C10.8 17.25 9.75 16.95 8.55 16.95C5.75 16.95 3.5 18.7 3.5 21.5C3.5 24.3 5.75 26.55 8.55 26.55C10.85 26.55 12.75 25.05 13.4 22.95C14.25 23.65 15.35 24.05 16.55 24.05C18.85 24.05 20.75 22.55 21.4 20.45C22.25 21.15 23.35 21.55 24.55 21.55C27.35 21.55 29.6 19.3 29.6 16.5C29.6 13.7 27.35 11.95 24.55 11.95Z" fill="#FC4100"/>
<path d="M21.75 15.6C21.7 15.6 21.65 15.6 21.65 15.55C21.5 15.5 21.45 15.35 21.5 15.25C21.8 14.7 22.25 14.3 22.9 14C23.05 13.95 23.15 14 23.25 14.15C23.3 14.3 23.25 14.4 23.1 14.5C22.55 14.75 22.15 15.05 21.95 15.5C21.9 15.55 21.8 15.6 21.75 15.6Z" fill="white"/>
<path d="M24.25 14.05C24.3881 14.05 24.5 13.9381 24.5 13.8C24.5 13.6619 24.3881 13.55 24.25 13.55C24.1119 13.55 24 13.6619 24 13.8C24 13.9381 24.1119 14.05 24.25 14.05Z" fill="white"/>
<path d="M5.44998 21.75C5.29998 21.75 5.19998 21.65 5.19998 21.5C5.19998 20 6.09998 19.3 6.89998 19C7.04998 18.95 7.14998 19 7.24998 19.15C7.29998 19.3 7.24998 19.4 7.09998 19.5C6.19998 19.9 5.69998 20.6 5.69998 21.55C5.69998 21.65 5.59998 21.75 5.44998 21.75Z" fill="white"/>
<path d="M8.25 19.05C8.38807 19.05 8.5 18.9381 8.5 18.8C8.5 18.6619 8.38807 18.55 8.25 18.55C8.11193 18.55 8 18.6619 8 18.8C8 18.9381 8.11193 19.05 8.25 19.05Z" fill="white"/>
<path d="M24.55 11.2C22.35 11.2 20.5 12.15 19.5 13.75C19.35 14 19 14.15 18.7 14.05C18.05 13.8 17.3 13.7 16.55 13.7C14.35 13.7 12.5 14.65 11.5 16.25C11.35 16.5 11 16.65 10.7 16.55C10.05 16.3 9.29999 16.2 8.54999 16.2C5.29999 16.2 2.89999 18.3 2.74999 21.25C2.54999 24.35 4.99999 27.1 8.09999 27.3C10.3 27.45 12.3 26.4 13.45 24.65C13.65 24.35 14 24.25 14.3 24.4C15 24.7 15.75 24.85 16.55 24.85C18.6 24.85 20.4 23.8 21.45 22.15C21.65 21.85 22 21.75 22.3 21.9C23.2 22.3 24.2 22.45 25.25 22.3C27.95 22 30.1 19.8 30.35 17.1C30.65 13.7 28.1 11.2 24.55 11.2ZM16.55 23.25C14.2 23.25 12.3 21.35 12.3 19C12.3 16.8 14.05 15.25 16.55 15.25C19.05 15.25 20.8 16.8 20.8 19C20.8 21.35 18.9 23.25 16.55 23.25ZM12.75 21.85C12.85 21.95 12.9 22.15 12.85 22.3L12.7 22.75C12.1 24.8 10.1 26.1 7.89999 25.75C5.84999 25.45 4.24999 23.6 4.24999 21.5C4.24999 19.25 5.99999 17.65 8.54999 17.65C9.54999 17.65 10.5 17.9 11.25 18.4L11.65 18.65C11.75 18.7 11.85 18.85 11.85 19C11.85 19.5 11.95 20.65 12.75 21.85ZM20.35 16.4C20.25 16.25 20.2 16.1 20.25 15.9L20.35 15.5C20.8 13.8 22.45 12.7 24.55 12.7C27.25 12.7 29.1 14.45 28.85 16.95C28.65 18.95 27.1 20.6 25.1 20.8C23.9 20.95 22.8 20.65 21.85 19.9L21.5 19.6C21.35 19.5 21.3 19.35 21.3 19.15C21.3 18.65 21.25 17.45 20.35 16.4Z" fill="#9F0500"/>
<path d="M13.45 19.25C13.3 19.25 13.2 19.15 13.2 19C13.2 17.5 14.1 16.8 14.9 16.5C15.05 16.45 15.15 16.5 15.25 16.65C15.3 16.8 15.25 16.9 15.1 17C14.2 17.4 13.7 18.1 13.7 19.05C13.7 19.15 13.6 19.25 13.45 19.25Z" fill="white"/>
<path d="M16.25 16.55C16.3881 16.55 16.5 16.4381 16.5 16.3C16.5 16.1619 16.3881 16.05 16.25 16.05C16.1119 16.05 16 16.1619 16 16.3C16 16.4381 16.1119 16.55 16.25 16.55Z" fill="white"/>
</svg>
